<svg width="16" height="24" viewBox="0 0 16 24" fill="none" xmlns="http://www.w3.org/2000/svg">
<path fill-rule="evenodd" clip-rule="evenodd" d="M1.70708 6.70711C2.0976 6.31658 2.73077 6.31658 3.12129 6.70711L13.0208 16.6066C13.4113 16.9971 13.4113 17.6303 13.0208 18.0208C12.6303 18.4113 11.9971 18.4113 11.6066 18.0208L1.70708 8.12132C1.31655 7.7308 1.31655 7.09763 1.70708 6.70711Z" fill="#3C3C3B"/>
<path fill-rule="evenodd" clip-rule="evenodd" d="M1.70711 18.0208C1.31658 17.6303 1.31658 16.9971 1.70711 16.6066L11.6066 6.70712C11.9971 6.31659 12.6303 6.31659 13.0208 6.70712C13.4113 7.09764 13.4113 7.73081 13.0208 8.12133L3.12132 18.0208C2.7308 18.4114 2.09763 18.4114 1.70711 18.0208Z" fill="#3C3C3B"/>
</svg>
