<svg width="26" height="26" viewBox="0 0 26 26" fill="none" xmlns="http://www.w3.org/2000/svg">
<path d="M1 20.2998V23.7299C1 24.4319 1.61802 24.9979 2.38004 24.9979H11.6223C12.3843 24.9979 13.0004 24.4319 13.0004 23.7299V22.6479" stroke="black" stroke-miterlimit="10" stroke-linecap="round" stroke-linejoin="round"/>
<path d="M1 20.2999V10.3396L3.22007 8.5495L12.2663 1.25329C12.6844 0.919275 13.3024 0.915275 13.7244 1.24329L13.7364 1.25329L22.7767 8.5455C22.7847 8.55151 22.7907 8.5575 22.7987 8.56551L25.0007 10.3416V23.732C25.0007 24.434 24.3847 25 23.6227 25H16.6265" stroke="black" stroke-miterlimit="10" stroke-linecap="round" stroke-linejoin="round"/>
<path d="M17.3925 13.6937C17.3925 15.4037 16.3904 16.8818 14.9424 17.5698C14.3864 17.8338 13.7624 17.9818 13.1023 17.9818C12.4363 17.9818 11.8023 17.8298 11.2403 17.5578C9.80424 16.8638 8.81421 15.3937 8.81421 13.6937C8.81421 11.3236 10.7343 9.40356 13.1043 9.40356C15.4724 9.40356 17.3925 11.3236 17.3925 13.6937Z" fill="#F0BA4E" stroke="black" stroke-miterlimit="10" stroke-linecap="round" stroke-linejoin="round"/>
<path d="M14.9425 17.5699V20.2539C14.9425 20.842 14.4645 21.32 13.8744 21.32H12.3064C11.7184 21.32 11.2404 20.842 11.2404 20.2539V17.5579C11.8024 17.8299 12.4364 17.9819 13.1024 17.9819C13.7604 17.9839 14.3845 17.8359 14.9425 17.5699Z" stroke="black" stroke-miterlimit="10" stroke-linecap="round" stroke-linejoin="round"/>
<path d="M14.1084 19.1619H11.2404" stroke="black" stroke-miterlimit="10" stroke-linecap="round" stroke-linejoin="round"/>
<path d="M6.97416 14.3838H5.75012" stroke="black" stroke-miterlimit="10" stroke-linecap="round" stroke-linejoin="round"/>
<path d="M20.3086 14.3838H19.0825" stroke="black" stroke-miterlimit="10" stroke-linecap="round" stroke-linejoin="round"/>
<path d="M19.7285 10.4595L18.6685 11.0715" stroke="black" stroke-miterlimit="10" stroke-linecap="round" stroke-linejoin="round"/>
<path d="M14.1084 20.1438H11.2404" stroke="black" stroke-miterlimit="10" stroke-linecap="round" stroke-linejoin="round"/>
<path d="M7.53422 11.0156L6.41418 10.5156" stroke="black" stroke-miterlimit="10" stroke-linecap="round" stroke-linejoin="round"/>
<path d="M9.76026 8.3954L9.04224 7.40137" stroke="black" stroke-miterlimit="10" stroke-linecap="round" stroke-linejoin="round"/>
<path d="M16.4604 8.3875L17.1965 7.40747" stroke="black" stroke-miterlimit="10" stroke-linecap="round" stroke-linejoin="round"/>
<path d="M13.1023 7.65353V6.42749" stroke="black" stroke-miterlimit="10" stroke-linecap="round" stroke-linejoin="round"/>
<path d="M13.3224 11.9077L12.1223 13.9178H14.1084L13.0763 15.9018" stroke="black" stroke-miterlimit="10" stroke-linecap="round" stroke-linejoin="round"/>
</svg>
