<svg width="26" height="26" viewBox="0 0 26 26" fill="none" xmlns="http://www.w3.org/2000/svg">
<path d="M22.9974 8.33462V12.8566C22.9974 13.2304 22.8393 13.5698 22.5831 13.8165C22.3268 14.0615 21.9725 14.2139 21.5818 14.2139C20.8004 14.2139 20.1662 13.6079 20.1662 12.8566L20.2443 11.6898C20.2316 11.6118 20.2043 11.5374 20.1662 11.4684C20.0317 11.2144 19.7482 11.0511 19.4393 11.0674C19.1776 11.0837 18.9468 11.2271 18.8214 11.4376C18.7633 11.532 18.7269 11.6408 18.7197 11.757L18.8214 15.5241C18.8214 15.8979 18.6633 16.2372 18.4071 16.484C18.2508 16.6346 18.0582 16.7489 17.8438 16.8143C17.8438 16.8143 17.6239 16.8814 17.4058 16.8796C16.9479 16.8741 16.2537 16.3025 15.9902 15.5223C15.6122 14.4027 16.3791 13.6151 15.9902 12.2995C15.9157 12.0509 15.8212 11.8495 15.7903 11.786C15.6104 11.4194 15.356 10.8932 14.7927 10.5775C14.72 10.5375 13.8368 10.0585 13.0518 10.4668C12.9391 10.5267 12.5902 10.7263 12.4085 11.1218C12.1541 11.6771 12.423 12.1997 12.4085 13.2957C12.4067 13.3756 12.403 13.5389 12.3431 13.7403C12.2304 14.1014 12.0087 14.3301 11.9269 14.4081C11.6289 14.693 11.2182 14.869 10.7657 14.869C9.85893 14.869 9.12296 14.1631 9.12296 13.2957V11.3741C9.12296 10.9023 8.7159 10.5267 8.26523 10.5339C7.86363 10.543 7.51291 10.8569 7.45294 11.2543C7.44204 11.3287 7.44204 11.4086 7.45294 11.4902V12.2251C7.45294 12.5989 7.29484 12.9383 7.03861 13.1832C6.7842 13.4282 6.42985 13.5806 6.03915 13.5806C5.25774 13.5806 4.62354 12.9746 4.62354 12.2251V8.33462C4.62354 7.58519 5.25774 6.97729 6.03915 6.97729H21.5818C22.3632 6.97729 22.9974 7.58519 22.9974 8.33462Z" fill="#FCC156"/>
<path d="M6.03915 6.97729H4.62354V8.33462" fill="#FCC156"/>
<path d="M21.5817 6.97729H22.9973V8.33462" fill="#FCC156"/>
<path d="M13.8022 15.7346H15.6431V23.0783C15.6431 24.1399 14.7817 25 13.7186 25C12.6556 25 11.7942 24.1399 11.7942 23.0783V15.7346H13.7186C13.7477 15.7346 13.775 15.7346 13.8022 15.7364V15.7346V15.7346Z" stroke="black" stroke-miterlimit="10" stroke-linecap="round" stroke-linejoin="round"/>
<path d="M25 2.54423V5.64357C25 6.49644 24.3076 7.1878 23.4535 7.1878H4.0893C3.23521 7.1878 2.54285 6.49644 2.54285 5.64357V2.54423C2.54285 1.69136 3.23521 1 4.0893 1H23.4535C24.3076 1.00181 25 1.69318 25 2.54423Z" stroke="black" stroke-miterlimit="10" stroke-linecap="round" stroke-linejoin="round"/>
<path d="M2.54645 3.84521C2.54463 3.84521 2.54463 3.84521 2.54282 3.84521C1.69054 3.84703 1 4.59465 1 5.51647V6.98992C1 7.91356 1.69236 8.66118 2.54645 8.66118H11.1819H12.4085" stroke="black" stroke-miterlimit="10" stroke-linecap="round" stroke-linejoin="round"/>
<path d="M13.8022 15.7365V10.349C13.8022 9.41625 13.1771 8.66138 12.4084 8.66138H11.1818" stroke="black" stroke-miterlimit="10" stroke-linecap="round" stroke-linejoin="round"/>
<path d="M13.8023 15.7346V15.7364C13.7751 15.7346 13.7478 15.7346 13.7188 15.7346H13.8023Z" stroke="black" stroke-miterlimit="10" stroke-linecap="round" stroke-linejoin="round"/>
<path d="M13.7496 22.8534C14.0588 22.8534 14.3093 22.6032 14.3093 22.2945C14.3093 21.9858 14.0588 21.7356 13.7496 21.7356C13.4405 21.7356 13.1899 21.9858 13.1899 22.2945C13.1899 22.6032 13.4405 22.8534 13.7496 22.8534Z" fill="#010202" stroke="black" stroke-miterlimit="10"/>
</svg>
