<svg width="26" height="26" viewBox="0 0 26 26" fill="none" xmlns="http://www.w3.org/2000/svg">
<path d="M20.6572 20.9062H5.77458C4.23102 20.9062 2.9812 19.6543 2.9812 18.1124V17.5575C2.9812 16.0137 4.23294 14.7637 5.77458 14.7637H20.6572C22.2008 14.7637 23.4506 16.0156 23.4506 17.5575V18.1124C23.4525 19.6543 22.2008 20.9062 20.6572 20.9062Z" fill="#FCC156" stroke="black" stroke-miterlimit="10" stroke-linecap="round" stroke-linejoin="round"/>
<path d="M3.77035 19.8904C3.74155 19.8482 3.70699 19.8079 3.6686 19.7695C3.23663 19.2414 2.97937 18.5655 2.97937 17.832C2.97937 16.9853 3.32302 16.2172 3.87978 15.6603C4.43845 15.1054 5.20639 14.7617 6.05689 14.7617H20.3751C22.0742 14.7617 23.4507 16.1385 23.4507 17.834C23.4507 18.3831 23.3067 18.8977 23.0533 19.3432" stroke="black" stroke-miterlimit="10" stroke-linecap="round" stroke-linejoin="round"/>
<path d="M25 20.8333V23.4543C25 24.3088 24.3089 25 23.4526 25H2.97936C2.97936 25 2.69906 25 2.5474 25C1.69306 25 1 24.3088 1 23.4543V20.8333C1 19.9808 1.69306 19.2876 2.5474 19.2876C2.9736 19.2876 3.36141 19.4604 3.64171 19.7408C3.64939 19.7484 3.65899 19.758 3.66667 19.7676C3.6993 19.808 3.73386 19.8483 3.76842 19.8886C3.77418 19.8905 3.7761 19.8944 3.7761 19.8963C4.34053 20.5146 5.15263 20.9024 6.05496 20.9024H20.3732C20.9472 20.9024 21.4848 20.745 21.9455 20.4704C22.1663 20.3398 22.3679 20.1805 22.5484 20.0019C22.7442 19.806 22.9131 19.5814 23.0514 19.3394C23.1781 19.3049 23.3105 19.2876 23.4488 19.2876C23.8788 19.2876 24.2628 19.4604 24.5431 19.7408C24.8253 20.0211 25 20.407 25 20.8333Z" stroke="black" stroke-miterlimit="10" stroke-linecap="round" stroke-linejoin="round"/>
<path d="M6.73453 8.7958H2.5339C2.41679 8.7958 2.3208 8.6998 2.3208 8.58267V3.33106C2.3208 3.21393 2.41679 3.11792 2.5339 3.11792H6.73453C6.85164 3.11792 6.94763 3.21393 6.94763 3.33106V8.58267C6.94763 8.70172 6.85164 8.7958 6.73453 8.7958Z" fill="#FCC156"/>
<path d="M7.94597 18.6C8.27891 18.6 8.5488 18.3309 8.5488 17.999C8.5488 17.667 8.27891 17.3979 7.94597 17.3979C7.61304 17.3979 7.34314 17.667 7.34314 17.999C7.34314 18.3309 7.61304 18.6 7.94597 18.6Z" fill="#010202"/>
<path d="M13.0777 18.6C13.4106 18.6 13.6805 18.3309 13.6805 17.999C13.6805 17.667 13.4106 17.3979 13.0777 17.3979C12.7447 17.3979 12.4749 17.667 12.4749 17.999C12.4749 18.3309 12.7447 18.6 13.0777 18.6Z" fill="#010202"/>
<path d="M18.1634 18.6C18.4963 18.6 18.7662 18.3309 18.7662 17.999C18.7662 17.667 18.4963 17.3979 18.1634 17.3979C17.8304 17.3979 17.5605 17.667 17.5605 17.999C17.5605 18.3309 17.8304 18.6 18.1634 18.6Z" fill="#010202"/>
<path d="M19.0637 1H22.481L24.2799 6.24585H17.3723L19.0637 1Z" stroke="#010202" stroke-miterlimit="10" stroke-linecap="round" stroke-linejoin="round"/>
<path d="M20.8263 6.24585V14.7617" stroke="black" stroke-miterlimit="10"/>
<path d="M8.05726 10.4183H1.21493C1.09782 10.4183 1.00183 10.3223 1.00183 10.2052V1.7085C1.00183 1.59137 1.09782 1.49536 1.21493 1.49536H8.05726C8.17437 1.49536 8.27037 1.59137 8.27037 1.7085V10.2052C8.26845 10.3223 8.17437 10.4183 8.05726 10.4183Z" stroke="black" stroke-miterlimit="10"/>
</svg>
